<svg width="80" height="80" viewBox="0 0 80 80" fill="none" xmlns="http://www.w3.org/2000/svg">
<path d="M80 0H0V80H80V0Z" fill="#512BD4"/>
<path d="M14.2586 51.1111C13.6929 51.1111 13.2121 50.9227 12.8161 50.5457C12.4202 50.159 12.2222 49.6999 12.2222 49.1683C12.2222 48.6269 12.4202 48.1631 12.8161 47.7764C13.2121 47.3897 13.6929 47.1964 14.2586 47.1964C14.8337 47.1964 15.3192 47.3897 15.7151 47.7764C16.1205 48.1631 16.3232 48.6269 16.3232 49.1683C16.3232 49.6999 16.1205 50.159 15.7151 50.5457C15.3192 50.9227 14.8337 51.1111 14.2586 51.1111Z" fill="white"/>
<path d="M36.8714 50.7921H33.1946L23.5077 35.5098C23.2626 35.1232 23.0598 34.7219 22.8996 34.3063H22.8147C22.8902 34.7511 22.9279 35.7032 22.9279 37.1626V50.7921H19.6753V30H23.5925L32.9542 44.9198C33.3502 45.5386 33.6047 45.9639 33.7179 46.1958H33.7744C33.6802 45.6449 33.633 44.7121 33.633 43.3974V30H36.8714V50.7921Z" fill="white"/>
<path d="M52.7104 50.7921H41.3265V30H52.2579V32.9289H44.6923V38.8156H51.664V41.73H44.6923V47.8777H52.7104V50.7921Z" fill="white"/>
<path d="M68.8889 32.9289H63.0626V50.7921H59.6968V32.9289H53.8847V30H68.8889V32.9289Z" fill="white"/>
</svg>
